<svg width="639" height="394" viewBox="0 0 639 394" fill="none" xmlns="http://www.w3.org/2000/svg">
<path fill-rule="evenodd" clip-rule="evenodd" d="M481.507 84.1676H596.4C619.927 84.1676 639 103.24 639 126.768V267.232C639 290.76 619.927 309.832 596.4 309.832H481.507C445.888 360.722 386.831 394 320 394C253.169 394 194.112 360.722 158.493 309.832H42.6C19.0726 309.832 0 290.76 0 267.232V126.768C0 103.24 19.0727 84.1676 42.6 84.1676H158.493C194.112 33.2781 253.17 0 320 0C386.831 0 445.888 33.2781 481.507 84.1676Z" fill="#5CA59A"/>
<circle cx="320" cy="197" r="175.5" stroke="white" stroke-width="15"/>
<rect y="84" width="639" height="225.665" rx="42.6" fill="#5CA59A"/>
<circle cx="317" cy="184" r="80" fill="white"/>
<circle cx="317" cy="184" r="62.807" stroke="#5CA59A" stroke-width="3.50877"/>
<path d="M286.881 136.982V167.309C286.881 170.678 293.62 174.048 293.62 174.048C293.62 197.635 290.25 211.113 290.25 217.853C290.25 221.222 290.25 224.592 293.62 227.961C296.989 231.331 296.989 231.331 300.359 227.961C303.729 224.592 303.729 221.222 303.729 217.853C303.729 211.113 300.359 197.635 300.359 174.048C300.359 174.048 307.098 170.678 307.098 167.309V136.982H303.307V157.2H298.885V136.982H295.094V157.2H290.671V136.982H286.881Z" fill="#5CA59A"/>
<path d="M341.086 136.982C344.475 136.982 344.475 140.371 344.475 140.371V197.978H344.39C345.365 207.678 346.593 214.244 346.593 218.31C346.593 221.699 346.593 225.087 343.204 228.476C339.816 231.865 339.816 231.865 336.427 228.476C333.038 225.087 333.038 221.699 333.038 218.31C333.038 213.63 334.648 205.709 335.665 193.425C333.06 187.05 330.92 178.959 330.92 170.869C330.92 160.703 336.385 141.727 341.086 136.982Z" fill="#5CA59A"/>
<path d="M39.264 210.964H50.154C52.4127 208.141 54.1873 204.027 55.478 198.622C56.8493 193.217 57.535 187.853 57.535 182.529C57.535 169.864 55.1553 160.628 50.396 154.82H39.264V210.964ZM22.808 225V140.3H57.898C69.3527 150.464 75.08 164.258 75.08 181.682C75.08 199.025 69.7157 213.465 58.987 225H22.808ZM84.4896 225V140.3H101.067V225H84.4896ZM150.483 225L127.856 178.173L127.251 178.415L127.977 192.693V225H112.731V140.3H124.952L147.216 188.942L147.821 188.7L146.49 173.817V140.3H161.736V225H150.483ZM173.349 225V140.3H216.788V154.82H189.926V175.027H213.884V189.063H189.926V210.964H217.272V225H173.349Z" fill="white"/>
<path d="M409.808 225V140.3H453.247V154.82H426.385V175.027H450.343V189.063H426.385V210.964H453.731V225H409.808ZM499.158 225L496.617 211.569H477.499L474.958 225H458.502L474.837 140.3H499.884L515.372 225H499.158ZM486.816 156.03L482.097 184.223L479.435 198.622H494.56L491.777 184.223L487.058 156.03H486.816ZM530.162 140.3H559.202V154.82H535.97L535.607 155.546L554.967 190.878C558.92 197.977 560.896 203.381 560.896 207.092C560.896 215.239 558.194 221.209 552.789 225H520.724V210.964H545.771L546.134 210.238L524.354 171.155C521.208 165.508 519.635 160.91 519.635 157.361C519.635 148.972 523.144 143.285 530.162 140.3ZM569.329 225V140.3H612.768V154.82H585.906V175.027H609.864V189.063H585.906V210.964H613.252V225H569.329Z" fill="white"/>
<path d="M36.216 291.376C36.28 291.488 36.496 291.544 36.864 291.544V292H31.992V291.544C32.216 291.544 32.368 291.504 32.448 291.424C32.528 291.344 32.536 291.264 32.472 291.184L28.44 284.392H25.968V291.28C25.968 291.36 26.032 291.424 26.16 291.472C26.288 291.52 26.408 291.544 26.52 291.544V292H22.2V291.544C22.312 291.544 22.432 291.52 22.56 291.472C22.688 291.424 22.752 291.36 22.752 291.28V274.72C22.752 274.64 22.688 274.576 22.56 274.528C22.448 274.48 22.336 274.456 22.224 274.456V274H29.544C31.656 274 33.248 274.48 34.32 275.44C35.408 276.384 35.952 277.608 35.952 279.112C35.952 280.504 35.568 281.624 34.8 282.472C34.048 283.32 33.072 283.888 31.872 284.176L36.216 291.376ZM25.968 276.784V281.488H29.904C30.896 281.488 31.64 281.256 32.136 280.792C32.632 280.328 32.88 279.768 32.88 279.112C32.88 278.472 32.6 277.928 32.04 277.48C31.48 277.016 30.792 276.784 29.976 276.784H25.968ZM51.4719 288.64V292.48H51.0159C51.0159 292.368 50.9919 292.256 50.9439 292.144C50.8959 292.032 50.8319 291.976 50.7519 291.976H38.5359V291.52C38.6479 291.52 38.7599 291.496 38.8719 291.448C38.9999 291.4 39.0639 291.336 39.0639 291.256V274.696C39.0639 274.616 38.9999 274.552 38.8719 274.504C38.7599 274.456 38.6479 274.432 38.5359 274.432V273.976H50.1279C50.2079 273.976 50.2719 273.92 50.3199 273.808C50.3679 273.696 50.3919 273.584 50.3919 273.472H50.8479V277.312H50.3919C50.3919 277.2 50.3679 277.088 50.3199 276.976C50.2719 276.864 50.2079 276.808 50.1279 276.808H42.1599V281.032H48.9519C49.0319 281.032 49.0959 280.976 49.1439 280.864C49.1919 280.752 49.2159 280.64 49.2159 280.528H49.6719V284.368H49.2159C49.2159 284.256 49.1919 284.144 49.1439 284.032C49.0959 283.92 49.0319 283.864 48.9519 283.864H42.1599V289.144H50.7519C50.8319 289.144 50.8959 289.088 50.9439 288.976C50.9919 288.864 51.0159 288.752 51.0159 288.64H51.4719ZM59.9289 274C61.7209 274 63.2809 274.368 64.6089 275.104C65.9369 275.824 66.9609 276.872 67.6809 278.248C68.4169 279.624 68.7849 281.256 68.7849 283.144C68.7849 284.952 68.3929 286.528 67.6089 287.872C66.8409 289.2 65.7609 290.224 64.3689 290.944C62.9929 291.648 61.4169 292 59.6409 292H53.1609V291.544C53.2729 291.544 53.3849 291.52 53.4969 291.472C53.6249 291.424 53.6889 291.36 53.6889 291.28V274.72C53.6889 274.64 53.6249 274.576 53.4969 274.528C53.3849 274.48 53.2729 274.456 53.1609 274.456V274H59.9289ZM59.1849 289.168C60.5769 289.168 61.7609 288.92 62.7369 288.424C63.7289 287.912 64.4729 287.2 64.9689 286.288C65.4809 285.376 65.7369 284.312 65.7369 283.096C65.7369 281.192 65.2249 279.672 64.2009 278.536C63.1769 277.4 61.6009 276.832 59.4729 276.832H56.8329V289.168H59.1849ZM83.6516 288.64V292.48H83.1956C83.1956 292.368 83.1716 292.256 83.1236 292.144C83.0756 292.032 83.0116 291.976 82.9316 291.976H70.7156V291.52C70.8276 291.52 70.9396 291.496 71.0516 291.448C71.1796 291.4 71.2436 291.336 71.2436 291.256V274.696C71.2436 274.616 71.1796 274.552 71.0516 274.504C70.9396 274.456 70.8276 274.432 70.7156 274.432V273.976H82.3076C82.3876 273.976 82.4516 273.92 82.4996 273.808C82.5476 273.696 82.5716 273.584 82.5716 273.472H83.0276V277.312H82.5716C82.5716 277.2 82.5476 277.088 82.4996 276.976C82.4516 276.864 82.3876 276.808 82.3076 276.808H74.3396V281.032H81.1316C81.2116 281.032 81.2756 280.976 81.3236 280.864C81.3716 280.752 81.3956 280.64 81.3956 280.528H81.8516V284.368H81.3956C81.3956 284.256 81.3716 284.144 81.3236 284.032C81.2756 283.92 81.2116 283.864 81.1316 283.864H74.3396V289.144H82.9316C83.0116 289.144 83.0756 289.088 83.1236 288.976C83.1716 288.864 83.1956 288.752 83.1956 288.64H83.6516ZM97.5086 273.496V277.336H97.0526C97.0526 277.224 97.0286 277.112 96.9806 277C96.9326 276.888 96.8686 276.832 96.7886 276.832H89.0126V281.08H95.3006C95.3806 281.08 95.4446 281.024 95.4926 280.912C95.5406 280.8 95.5646 280.688 95.5646 280.576H96.0206V284.416H95.5646C95.5646 284.304 95.5406 284.192 95.4926 284.08C95.4446 283.968 95.3806 283.912 95.3006 283.912H89.0126V291.28C89.0126 291.36 89.0686 291.424 89.1806 291.472C89.3086 291.52 89.4366 291.544 89.5646 291.544V292H85.3406V291.544C85.4686 291.544 85.5886 291.52 85.7006 291.472C85.8286 291.424 85.8926 291.36 85.8926 291.28V274.72C85.8926 274.64 85.8286 274.576 85.7006 274.528C85.5886 274.48 85.4766 274.456 85.3646 274.456V274H96.7886C96.8686 274 96.9326 273.944 96.9806 273.832C97.0286 273.72 97.0526 273.608 97.0526 273.496H97.5086ZM99.7682 274.72C99.7682 274.64 99.7042 274.576 99.5762 274.528C99.4482 274.48 99.3202 274.456 99.1922 274.456V274H103.608V274.456C103.48 274.456 103.352 274.48 103.224 274.528C103.096 274.576 103.032 274.64 103.032 274.72V291.28C103.032 291.36 103.096 291.424 103.224 291.472C103.352 291.52 103.48 291.544 103.608 291.544V292H99.1922V291.544C99.3202 291.544 99.4482 291.52 99.5762 291.472C99.7042 291.424 99.7682 291.36 99.7682 291.28V274.72ZM122.237 274.456C122.125 274.456 122.005 274.48 121.877 274.528C121.749 274.576 121.685 274.64 121.685 274.72V291.28C121.685 291.36 121.741 291.424 121.853 291.472C121.981 291.52 122.101 291.544 122.213 291.544V292H117.989V291.544C118.373 291.544 118.493 291.44 118.349 291.232L109.829 279.472V291.28C109.829 291.36 109.893 291.424 110.021 291.472C110.149 291.52 110.277 291.544 110.405 291.544V292H106.013V291.544C106.141 291.544 106.269 291.52 106.396 291.472C106.525 291.424 106.589 291.36 106.589 291.28V274.72C106.589 274.64 106.525 274.576 106.396 274.528C106.285 274.48 106.173 274.456 106.061 274.456V274H110.405V274.456C110.021 274.456 109.901 274.56 110.045 274.768L118.805 286.912L118.493 274.72C118.493 274.64 118.421 274.576 118.277 274.528C118.149 274.48 118.029 274.456 117.917 274.456V274H122.237V274.456ZM125.221 274.72C125.221 274.64 125.157 274.576 125.029 274.528C124.901 274.48 124.773 274.456 124.645 274.456V274H129.061V274.456C128.933 274.456 128.805 274.48 128.677 274.528C128.549 274.576 128.485 274.64 128.485 274.72V291.28C128.485 291.36 128.549 291.424 128.677 291.472C128.805 291.52 128.933 291.544 129.061 291.544V292H124.645V291.544C124.773 291.544 124.901 291.52 125.029 291.472C125.157 291.424 125.221 291.36 125.221 291.28V274.72ZM147.69 274.456C147.578 274.456 147.458 274.48 147.33 274.528C147.202 274.576 147.138 274.64 147.138 274.72V291.28C147.138 291.36 147.194 291.424 147.306 291.472C147.434 291.52 147.554 291.544 147.666 291.544V292H143.442V291.544C143.826 291.544 143.946 291.44 143.802 291.232L135.282 279.472V291.28C135.282 291.36 135.346 291.424 135.474 291.472C135.602 291.52 135.73 291.544 135.858 291.544V292H131.466V291.544C131.594 291.544 131.722 291.52 131.85 291.472C131.978 291.424 132.042 291.36 132.042 291.28V274.72C132.042 274.64 131.978 274.576 131.85 274.528C131.738 274.48 131.626 274.456 131.514 274.456V274H135.858V274.456C135.474 274.456 135.354 274.56 135.498 274.768L144.258 286.912L143.946 274.72C143.946 274.64 143.874 274.576 143.73 274.528C143.602 274.48 143.482 274.456 143.37 274.456V274H147.69V274.456ZM167.738 289.12L165.938 290.224C163.65 291.568 161.218 292.24 158.642 292.24C156.946 292.24 155.41 291.824 154.034 290.992C152.658 290.16 151.578 289.024 150.794 287.584C150.01 286.144 149.618 284.552 149.618 282.808C149.618 280.984 150.05 279.368 150.914 277.96C151.778 276.536 152.938 275.432 154.394 274.648C155.866 273.864 157.474 273.472 159.218 273.472C160.482 273.472 161.618 273.688 162.626 274.12C163.65 274.536 164.658 275.128 165.65 275.896C165.666 275.912 165.698 275.92 165.746 275.92C165.826 275.92 165.922 275.888 166.034 275.824C166.162 275.744 166.258 275.672 166.322 275.608L166.634 275.944L163.442 279.112L163.106 278.8C163.202 278.704 163.274 278.6 163.322 278.488C163.386 278.36 163.386 278.264 163.322 278.2C162.026 277.064 160.666 276.496 159.242 276.496C158.122 276.496 157.082 276.752 156.122 277.264C155.162 277.776 154.394 278.512 153.818 279.472C153.258 280.416 152.978 281.528 152.978 282.808C152.978 283.976 153.218 285.04 153.698 286C154.178 286.944 154.85 287.696 155.714 288.256C156.578 288.816 157.562 289.096 158.666 289.096C160.538 289.096 162.17 288.656 163.562 287.776V284.272H159.218C159.138 284.272 159.074 284.328 159.026 284.44C158.978 284.552 158.954 284.664 158.954 284.776H158.498V280.936H158.954C158.954 281.048 158.978 281.16 159.026 281.272C159.074 281.384 159.138 281.44 159.218 281.44H167.186V281.896C167.074 281.896 166.954 281.92 166.826 281.968C166.714 282.016 166.658 282.08 166.658 282.16V288.832C166.658 288.912 166.722 288.952 166.85 288.952C167.042 288.952 167.258 288.88 167.498 288.736L167.738 289.12ZM190.73 273.52V277.216H190.274C190.274 277.12 190.25 277.016 190.202 276.904C190.154 276.792 190.09 276.736 190.01 276.736H184.658V291.28C184.658 291.36 184.722 291.424 184.85 291.472C184.978 291.52 185.106 291.544 185.234 291.544V292H180.818V291.544C180.946 291.544 181.074 291.52 181.202 291.472C181.33 291.424 181.394 291.36 181.394 291.28V276.736H176.018C175.938 276.736 175.874 276.792 175.826 276.904C175.778 277.016 175.754 277.12 175.754 277.216H175.298V273.52H175.754C175.754 273.616 175.778 273.72 175.826 273.832C175.874 273.944 175.938 274 176.018 274H190.01C190.09 274 190.154 273.944 190.202 273.832C190.25 273.72 190.274 273.616 190.274 273.52H190.73ZM208.222 274.456C208.11 274.456 207.982 274.48 207.838 274.528C207.71 274.576 207.646 274.64 207.646 274.72V291.28C207.646 291.36 207.71 291.424 207.838 291.472C207.982 291.52 208.11 291.544 208.222 291.544V292H203.71V291.544C203.822 291.544 203.942 291.52 204.07 291.472C204.214 291.424 204.286 291.36 204.286 291.28V284.032H196.222V291.28C196.222 291.36 196.286 291.424 196.414 291.472C196.558 291.52 196.686 291.544 196.798 291.544V292H192.286V291.544C192.398 291.544 192.518 291.52 192.646 291.472C192.79 291.424 192.862 291.36 192.862 291.28V274.72C192.862 274.64 192.79 274.576 192.646 274.528C192.518 274.48 192.398 274.456 192.286 274.456V274H196.798V274.456C196.686 274.456 196.558 274.48 196.414 274.528C196.286 274.576 196.222 274.64 196.222 274.72V281.032H204.286V274.72C204.286 274.64 204.214 274.576 204.07 274.528C203.942 274.48 203.822 274.456 203.71 274.456V274H208.222V274.456ZM223.55 288.64V292.48H223.094C223.094 292.368 223.07 292.256 223.022 292.144C222.974 292.032 222.91 291.976 222.83 291.976H210.614V291.52C210.726 291.52 210.838 291.496 210.95 291.448C211.078 291.4 211.142 291.336 211.142 291.256V274.696C211.142 274.616 211.078 274.552 210.95 274.504C210.838 274.456 210.726 274.432 210.614 274.432V273.976H222.206C222.286 273.976 222.35 273.92 222.398 273.808C222.446 273.696 222.47 273.584 222.47 273.472H222.926V277.312H222.47C222.47 277.2 222.446 277.088 222.398 276.976C222.35 276.864 222.286 276.808 222.206 276.808H214.238V281.032H221.03C221.11 281.032 221.174 280.976 221.222 280.864C221.27 280.752 221.294 280.64 221.294 280.528H221.75V284.368H221.294C221.294 284.256 221.27 284.144 221.222 284.032C221.174 283.92 221.11 283.864 221.03 283.864H214.238V289.144H222.83C222.91 289.144 222.974 289.088 223.022 288.976C223.07 288.864 223.094 288.752 223.094 288.64H223.55ZM240.246 290.824C240.166 291.096 240.214 291.288 240.39 291.4C240.582 291.496 240.774 291.544 240.966 291.544V292H235.326V291.544C235.47 291.544 235.622 291.512 235.782 291.448C235.942 291.368 236.022 291.232 236.022 291.04C236.022 290.96 236.014 290.896 235.998 290.848L231.486 274.696C231.454 274.536 231.294 274.456 231.006 274.456V274H235.686V274.456C235.494 274.456 235.35 274.512 235.254 274.624C235.158 274.72 235.118 274.824 235.134 274.936L238.134 287.2L240.918 275.176C240.934 275.128 240.942 275.064 240.942 274.984C240.942 274.792 240.854 274.656 240.678 274.576C240.502 274.496 240.334 274.456 240.174 274.456V274H245.886V274.456C245.694 274.456 245.502 274.512 245.31 274.624C245.118 274.72 245.062 274.904 245.142 275.176L247.878 286.624L250.23 274.936C250.262 274.84 250.182 274.736 249.99 274.624C249.814 274.512 249.622 274.456 249.414 274.456V274H254.526V274.456C254.254 274.456 254.094 274.536 254.046 274.696L249.606 290.848C249.59 290.896 249.582 290.96 249.582 291.04C249.582 291.232 249.654 291.368 249.798 291.448C249.958 291.512 250.11 291.544 250.254 291.544V292H245.022V291.544C245.198 291.544 245.374 291.496 245.55 291.4C245.742 291.288 245.806 291.096 245.742 290.824L243.126 278.704L240.246 290.824ZM273.558 291.328C273.606 291.472 273.798 291.544 274.134 291.544V292H269.262V291.544C269.47 291.544 269.614 291.496 269.694 291.4C269.774 291.304 269.79 291.208 269.742 291.112L268.422 287.728H260.598L259.278 291.112L259.254 291.184C259.254 291.28 259.294 291.368 259.374 291.448C259.47 291.512 259.59 291.544 259.734 291.544V292H255.006V291.544C255.326 291.544 255.518 291.472 255.582 291.328L262.254 275.104C262.302 275.008 262.326 274.92 262.326 274.84C262.326 274.696 262.262 274.6 262.134 274.552C262.006 274.488 261.87 274.456 261.726 274.456V274H267.318V274.456C267.174 274.456 267.038 274.488 266.91 274.552C266.782 274.6 266.718 274.696 266.718 274.84C266.718 274.92 266.742 275.008 266.79 275.104L273.558 291.328ZM264.51 277.744L261.678 284.968H267.342L264.51 277.744ZM292.527 274.456H292.383C292.079 274.456 291.895 274.504 291.831 274.6L285.375 283.864V291.28C285.375 291.36 285.439 291.424 285.567 291.472C285.711 291.52 285.847 291.544 285.975 291.544V292H281.271V291.544C281.399 291.544 281.527 291.52 281.655 291.472C281.799 291.424 281.871 291.36 281.871 291.28V284.008L275.319 274.6C275.271 274.536 275.167 274.496 275.007 274.48C274.863 274.464 274.735 274.456 274.623 274.456V274H279.567V274.456C279.375 274.456 279.279 274.496 279.279 274.576C279.279 274.64 279.303 274.712 279.351 274.792L283.527 280.672L287.655 274.792L287.703 274.696C287.703 274.616 287.655 274.56 287.559 274.528C287.479 274.48 287.359 274.456 287.199 274.456V274H292.527V274.456ZM317.628 274.456H317.484C317.18 274.456 316.996 274.504 316.932 274.6L310.476 283.864V291.28C310.476 291.36 310.54 291.424 310.668 291.472C310.812 291.52 310.948 291.544 311.076 291.544V292H306.372V291.544C306.5 291.544 306.628 291.52 306.756 291.472C306.9 291.424 306.972 291.36 306.972 291.28V284.008L300.42 274.6C300.372 274.536 300.268 274.496 300.108 274.48C299.964 274.464 299.836 274.456 299.724 274.456V274H304.668V274.456C304.476 274.456 304.38 274.496 304.38 274.576C304.38 274.64 304.404 274.712 304.452 274.792L308.628 280.672L312.756 274.792L312.804 274.696C312.804 274.616 312.756 274.56 312.66 274.528C312.58 274.48 312.46 274.456 312.3 274.456V274H317.628V274.456ZM328.179 292.384C326.323 292.384 324.659 291.96 323.187 291.112C321.731 290.248 320.595 289.112 319.779 287.704C318.979 286.28 318.579 284.776 318.579 283.192C318.579 281.592 318.963 280.056 319.731 278.584C320.499 277.096 321.611 275.888 323.067 274.96C324.523 274.032 326.227 273.568 328.179 273.568C330.083 273.568 331.755 274.008 333.195 274.888C334.635 275.768 335.739 276.944 336.507 278.416C337.275 279.872 337.659 281.464 337.659 283.192C337.659 284.728 337.275 286.208 336.507 287.632C335.755 289.04 334.659 290.184 333.219 291.064C331.779 291.944 330.099 292.384 328.179 292.384ZM328.203 289.216C329.403 289.216 330.475 288.968 331.419 288.472C332.379 287.96 333.123 287.248 333.651 286.336C334.195 285.408 334.467 284.36 334.467 283.192C334.467 281.96 334.211 280.856 333.699 279.88C333.187 278.904 332.451 278.136 331.491 277.576C330.531 277 329.395 276.712 328.083 276.712C326.883 276.712 325.811 277 324.867 277.576C323.939 278.136 323.211 278.912 322.683 279.904C322.155 280.896 321.891 281.992 321.891 283.192C321.891 284.44 322.195 285.52 322.803 286.432C323.427 287.344 324.219 288.04 325.179 288.52C326.155 288.984 327.163 289.216 328.203 289.216ZM347.775 292.264C346.303 292.264 344.991 291.96 343.839 291.352C342.687 290.744 341.791 289.864 341.151 288.712C340.511 287.544 340.191 286.176 340.191 284.608V274.72C340.191 274.64 340.119 274.576 339.975 274.528C339.847 274.48 339.719 274.456 339.591 274.456V274H344.223V274.456C344.095 274.456 343.959 274.48 343.815 274.528C343.687 274.576 343.623 274.64 343.623 274.72V283.888C343.623 285.616 343.967 286.944 344.655 287.872C345.359 288.8 346.399 289.264 347.775 289.264C349.279 289.264 350.279 288.784 350.775 287.824C351.287 286.864 351.543 285.616 351.543 284.08V274.72C351.543 274.64 351.471 274.576 351.327 274.528C351.199 274.48 351.071 274.456 350.943 274.456V274H355.599V274.456C355.471 274.456 355.335 274.48 355.191 274.528C355.063 274.576 354.999 274.64 354.999 274.72V284.176C354.999 286.72 354.415 288.704 353.247 290.128C352.095 291.552 350.271 292.264 347.775 292.264ZM377.652 288.64V292.48H377.196C377.196 292.368 377.172 292.256 377.124 292.144C377.076 292.032 377.012 291.976 376.932 291.976H364.716V291.52C364.828 291.52 364.94 291.496 365.052 291.448C365.18 291.4 365.244 291.336 365.244 291.256V274.696C365.244 274.616 365.18 274.552 365.052 274.504C364.94 274.456 364.828 274.432 364.716 274.432V273.976H376.308C376.388 273.976 376.452 273.92 376.5 273.808C376.548 273.696 376.572 273.584 376.572 273.472H377.028V277.312H376.572C376.572 277.2 376.548 277.088 376.5 276.976C376.452 276.864 376.388 276.808 376.308 276.808H368.34V281.032H375.132C375.212 281.032 375.276 280.976 375.324 280.864C375.372 280.752 375.396 280.64 375.396 280.528H375.852V284.368H375.396C375.396 284.256 375.372 284.144 375.324 284.032C375.276 283.92 375.212 283.864 375.132 283.864H368.34V289.144H376.932C377.012 289.144 377.076 289.088 377.124 288.976C377.172 288.864 377.196 288.752 377.196 288.64H377.652ZM397.005 274.456H396.717C396.461 274.456 396.309 274.488 396.261 274.552L389.589 282.952L395.901 291.424C395.965 291.504 396.093 291.544 396.285 291.544C396.493 291.544 396.605 291.544 396.621 291.544V292H391.533V291.544C391.725 291.544 391.821 291.504 391.821 291.424C391.821 291.392 391.789 291.328 391.725 291.232L387.501 285.712L383.253 291.232C383.221 291.296 383.205 291.336 383.205 291.352C383.205 291.4 383.245 291.448 383.325 291.496C383.421 291.528 383.541 291.544 383.685 291.544V292H378.381V291.544H378.549C378.837 291.544 379.021 291.504 379.101 291.424L385.341 283.144L379.101 274.576C379.037 274.496 378.901 274.456 378.693 274.456C378.501 274.456 378.397 274.456 378.381 274.456V274H383.037V274.456C382.845 274.456 382.749 274.488 382.749 274.552C382.749 274.568 382.765 274.6 382.797 274.648C382.829 274.696 382.853 274.728 382.869 274.744L387.525 280.648L392.109 274.768C392.141 274.704 392.157 274.664 392.157 274.648C392.157 274.52 392.005 274.456 391.701 274.456V274H397.005V274.456ZM406.098 274C407.362 274 408.466 274.232 409.41 274.696C410.354 275.16 411.074 275.808 411.57 276.64C412.082 277.456 412.338 278.392 412.338 279.448C412.338 280.616 412.058 281.608 411.498 282.424C410.938 283.224 410.202 283.832 409.29 284.248C408.378 284.648 407.402 284.848 406.362 284.848H402.186V291.28C402.186 291.36 402.25 291.424 402.378 291.472C402.506 291.52 402.626 291.544 402.738 291.544V292H398.442V291.544C398.554 291.544 398.674 291.52 398.802 291.472C398.93 291.424 398.994 291.36 398.994 291.28V274.72C398.994 274.64 398.93 274.576 398.802 274.528C398.69 274.48 398.578 274.456 398.466 274.456V274H406.098ZM406.554 281.8C407.114 281.8 407.61 281.68 408.042 281.44C408.474 281.184 408.802 280.864 409.026 280.48C409.25 280.096 409.362 279.696 409.362 279.28C409.362 278.656 409.098 278.104 408.57 277.624C408.042 277.144 407.378 276.904 406.578 276.904H402.186V281.8H406.554ZM427.433 288.64V292.48H426.977C426.977 292.368 426.953 292.256 426.905 292.144C426.857 292.032 426.793 291.976 426.713 291.976H414.497V291.52C414.609 291.52 414.721 291.496 414.833 291.448C414.961 291.4 415.025 291.336 415.025 291.256V274.696C415.025 274.616 414.961 274.552 414.833 274.504C414.721 274.456 414.609 274.432 414.497 274.432V273.976H426.089C426.169 273.976 426.233 273.92 426.281 273.808C426.329 273.696 426.353 273.584 426.353 273.472H426.809V277.312H426.353C426.353 277.2 426.329 277.088 426.281 276.976C426.233 276.864 426.169 276.808 426.089 276.808H418.121V281.032H424.913C424.993 281.032 425.057 280.976 425.105 280.864C425.153 280.752 425.177 280.64 425.177 280.528H425.633V284.368H425.177C425.177 284.256 425.153 284.144 425.105 284.032C425.057 283.92 424.993 283.864 424.913 283.864H418.121V289.144H426.713C426.793 289.144 426.857 289.088 426.905 288.976C426.953 288.864 426.977 288.752 426.977 288.64H427.433ZM443.138 291.376C443.202 291.488 443.418 291.544 443.786 291.544V292H438.914V291.544C439.138 291.544 439.29 291.504 439.37 291.424C439.45 291.344 439.458 291.264 439.394 291.184L435.362 284.392H432.89V291.28C432.89 291.36 432.954 291.424 433.082 291.472C433.21 291.52 433.33 291.544 433.442 291.544V292H429.122V291.544C429.234 291.544 429.354 291.52 429.482 291.472C429.61 291.424 429.674 291.36 429.674 291.28V274.72C429.674 274.64 429.61 274.576 429.482 274.528C429.37 274.48 429.258 274.456 429.146 274.456V274H436.466C438.578 274 440.17 274.48 441.242 275.44C442.33 276.384 442.874 277.608 442.874 279.112C442.874 280.504 442.49 281.624 441.722 282.472C440.97 283.32 439.994 283.888 438.794 284.176L443.138 291.376ZM432.89 276.784V281.488H436.826C437.818 281.488 438.562 281.256 439.058 280.792C439.554 280.328 439.802 279.768 439.802 279.112C439.802 278.472 439.522 277.928 438.962 277.48C438.402 277.016 437.714 276.784 436.898 276.784H432.89ZM446.034 274.72C446.034 274.64 445.97 274.576 445.842 274.528C445.714 274.48 445.586 274.456 445.458 274.456V274H449.874V274.456C449.746 274.456 449.618 274.48 449.49 274.528C449.362 274.576 449.298 274.64 449.298 274.72V291.28C449.298 291.36 449.362 291.424 449.49 291.472C449.618 291.52 449.746 291.544 449.874 291.544V292H445.458V291.544C445.586 291.544 445.714 291.52 445.842 291.472C445.97 291.424 446.034 291.36 446.034 291.28V274.72ZM465.214 288.64V292.48H464.758C464.758 292.368 464.734 292.256 464.686 292.144C464.638 292.032 464.574 291.976 464.494 291.976H452.278V291.52C452.39 291.52 452.502 291.496 452.614 291.448C452.742 291.4 452.806 291.336 452.806 291.256V274.696C452.806 274.616 452.742 274.552 452.614 274.504C452.502 274.456 452.39 274.432 452.278 274.432V273.976H463.87C463.95 273.976 464.014 273.92 464.062 273.808C464.11 273.696 464.134 273.584 464.134 273.472H464.59V277.312H464.134C464.134 277.2 464.11 277.088 464.062 276.976C464.014 276.864 463.95 276.808 463.87 276.808H455.902V281.032H462.694C462.774 281.032 462.838 280.976 462.886 280.864C462.934 280.752 462.958 280.64 462.958 280.528H463.414V284.368H462.958C462.958 284.256 462.934 284.144 462.886 284.032C462.838 283.92 462.774 283.864 462.694 283.864H455.902V289.144H464.494C464.574 289.144 464.638 289.088 464.686 288.976C464.734 288.864 464.758 288.752 464.758 288.64H465.214ZM483.127 274.456C483.015 274.456 482.895 274.48 482.767 274.528C482.639 274.576 482.575 274.64 482.575 274.72V291.28C482.575 291.36 482.631 291.424 482.743 291.472C482.871 291.52 482.991 291.544 483.103 291.544V292H478.879V291.544C479.263 291.544 479.383 291.44 479.239 291.232L470.719 279.472V291.28C470.719 291.36 470.783 291.424 470.911 291.472C471.039 291.52 471.167 291.544 471.295 291.544V292H466.903V291.544C467.031 291.544 467.159 291.52 467.287 291.472C467.415 291.424 467.479 291.36 467.479 291.28V274.72C467.479 274.64 467.415 274.576 467.287 274.528C467.175 274.48 467.063 274.456 466.951 274.456V274H471.295V274.456C470.911 274.456 470.791 274.56 470.935 274.768L479.695 286.912L479.383 274.72C479.383 274.64 479.311 274.576 479.167 274.528C479.039 274.48 478.919 274.456 478.807 274.456V274H483.127V274.456ZM494.44 292.24C492.728 292.24 491.152 291.84 489.712 291.04C488.272 290.224 487.136 289.104 486.304 287.68C485.472 286.24 485.056 284.64 485.056 282.88C485.056 281.024 485.472 279.384 486.304 277.96C487.136 276.536 488.256 275.44 489.664 274.672C491.072 273.888 492.616 273.496 494.296 273.496C495.912 273.496 497.272 273.784 498.376 274.36C499.496 274.92 500.552 275.712 501.544 276.736C501.576 276.768 501.624 276.784 501.688 276.784C501.784 276.784 501.952 276.712 502.192 276.568L502.48 276.928L499.168 279.544L498.88 279.184C498.976 279.12 499.048 279.04 499.096 278.944C499.16 278.832 499.16 278.752 499.096 278.704C498.424 278.048 497.72 277.552 496.984 277.216C496.264 276.864 495.384 276.688 494.344 276.688C493.256 276.688 492.256 276.96 491.344 277.504C490.432 278.032 489.712 278.768 489.184 279.712C488.656 280.656 488.392 281.712 488.392 282.88C488.392 284 488.672 285.024 489.232 285.952C489.792 286.864 490.536 287.584 491.464 288.112C492.392 288.64 493.384 288.904 494.44 288.904C495.432 288.904 496.28 288.736 496.984 288.4C497.688 288.048 498.352 287.528 498.976 286.84L499.024 286.744C499.024 286.664 498.984 286.576 498.904 286.48C498.84 286.368 498.768 286.288 498.688 286.24L499 285.904L502.576 288.904L502.288 289.264C502.192 289.184 502.072 289.112 501.928 289.048C501.784 288.984 501.688 288.984 501.64 289.048C500.632 290.136 499.576 290.944 498.472 291.472C497.368 291.984 496.024 292.24 494.44 292.24ZM516.824 288.64V292.48H516.368C516.368 292.368 516.344 292.256 516.296 292.144C516.248 292.032 516.184 291.976 516.104 291.976H503.888V291.52C504 291.52 504.112 291.496 504.224 291.448C504.352 291.4 504.416 291.336 504.416 291.256V274.696C504.416 274.616 504.352 274.552 504.224 274.504C504.112 274.456 504 274.432 503.888 274.432V273.976H515.48C515.56 273.976 515.624 273.92 515.672 273.808C515.72 273.696 515.744 273.584 515.744 273.472H516.2V277.312H515.744C515.744 277.2 515.72 277.088 515.672 276.976C515.624 276.864 515.56 276.808 515.48 276.808H507.512V281.032H514.304C514.384 281.032 514.448 280.976 514.496 280.864C514.544 280.752 514.568 280.64 514.568 280.528H515.023V284.368H514.568C514.568 284.256 514.544 284.144 514.496 284.032C514.448 283.92 514.384 283.864 514.304 283.864H507.512V289.144H516.104C516.184 289.144 516.248 289.088 516.296 288.976C516.344 288.864 516.368 288.752 516.368 288.64H516.824ZM532.007 274C533.799 274 535.359 274.368 536.687 275.104C538.015 275.824 539.039 276.872 539.759 278.248C540.495 279.624 540.863 281.256 540.863 283.144C540.863 284.952 540.471 286.528 539.687 287.872C538.919 289.2 537.839 290.224 536.447 290.944C535.071 291.648 533.495 292 531.719 292H525.239V291.544C525.351 291.544 525.463 291.52 525.575 291.472C525.703 291.424 525.767 291.36 525.767 291.28V274.72C525.767 274.64 525.703 274.576 525.575 274.528C525.463 274.48 525.351 274.456 525.239 274.456V274H532.007ZM531.263 289.168C532.655 289.168 533.839 288.92 534.815 288.424C535.807 287.912 536.551 287.2 537.047 286.288C537.559 285.376 537.815 284.312 537.815 283.096C537.815 281.192 537.303 279.672 536.279 278.536C535.255 277.4 533.679 276.832 531.551 276.832H528.911V289.168H531.263ZM543.37 274.72C543.37 274.64 543.306 274.576 543.178 274.528C543.05 274.48 542.922 274.456 542.794 274.456V274H547.21V274.456C547.082 274.456 546.954 274.48 546.826 274.528C546.698 274.576 546.634 274.64 546.634 274.72V291.28C546.634 291.36 546.698 291.424 546.826 291.472C546.954 291.52 547.082 291.544 547.21 291.544V292H542.794V291.544C542.922 291.544 543.05 291.52 543.178 291.472C543.306 291.424 543.37 291.36 543.37 291.28V274.72ZM565.838 274.456C565.726 274.456 565.606 274.48 565.478 274.528C565.35 274.576 565.286 274.64 565.286 274.72V291.28C565.286 291.36 565.342 291.424 565.454 291.472C565.582 291.52 565.702 291.544 565.814 291.544V292H561.59V291.544C561.974 291.544 562.094 291.44 561.95 291.232L553.43 279.472V291.28C553.43 291.36 553.494 291.424 553.622 291.472C553.75 291.52 553.878 291.544 554.006 291.544V292H549.614V291.544C549.742 291.544 549.87 291.52 549.998 291.472C550.126 291.424 550.19 291.36 550.19 291.28V274.72C550.19 274.64 550.126 274.576 549.998 274.528C549.886 274.48 549.774 274.456 549.662 274.456V274H554.006V274.456C553.622 274.456 553.502 274.56 553.646 274.768L562.406 286.912L562.094 274.72C562.094 274.64 562.022 274.576 561.878 274.528C561.75 274.48 561.63 274.456 561.518 274.456V274H565.838V274.456ZM568.823 274.72C568.823 274.64 568.759 274.576 568.631 274.528C568.503 274.48 568.375 274.456 568.247 274.456V274H572.663V274.456C572.535 274.456 572.407 274.48 572.279 274.528C572.151 274.576 572.087 274.64 572.087 274.72V291.28C572.087 291.36 572.151 291.424 572.279 291.472C572.407 291.52 572.535 291.544 572.663 291.544V292H568.247V291.544C568.375 291.544 568.503 291.52 568.631 291.472C568.759 291.424 568.823 291.36 568.823 291.28V274.72ZM591.291 274.456C591.179 274.456 591.059 274.48 590.931 274.528C590.803 274.576 590.739 274.64 590.739 274.72V291.28C590.739 291.36 590.795 291.424 590.907 291.472C591.035 291.52 591.155 291.544 591.267 291.544V292H587.043V291.544C587.427 291.544 587.547 291.44 587.403 291.232L578.883 279.472V291.28C578.883 291.36 578.947 291.424 579.075 291.472C579.203 291.52 579.331 291.544 579.459 291.544V292H575.067V291.544C575.195 291.544 575.323 291.52 575.451 291.472C575.579 291.424 575.643 291.36 575.643 291.28V274.72C575.643 274.64 575.579 274.576 575.451 274.528C575.339 274.48 575.227 274.456 575.115 274.456V274H579.459V274.456C579.075 274.456 578.955 274.56 579.099 274.768L587.859 286.912L587.547 274.72C587.547 274.64 587.475 274.576 587.331 274.528C587.203 274.48 587.083 274.456 586.971 274.456V274H591.291V274.456ZM611.34 289.12L609.54 290.224C607.252 291.568 604.82 292.24 602.244 292.24C600.548 292.24 599.012 291.824 597.636 290.992C596.26 290.16 595.18 289.024 594.396 287.584C593.612 286.144 593.22 284.552 593.22 282.808C593.22 280.984 593.652 279.368 594.516 277.96C595.38 276.536 596.54 275.432 597.996 274.648C599.468 273.864 601.076 273.472 602.82 273.472C604.084 273.472 605.22 273.688 606.228 274.12C607.252 274.536 608.26 275.128 609.252 275.896C609.268 275.912 609.3 275.92 609.348 275.92C609.428 275.92 609.524 275.888 609.636 275.824C609.764 275.744 609.86 275.672 609.924 275.608L610.236 275.944L607.044 279.112L606.708 278.8C606.804 278.704 606.876 278.6 606.924 278.488C606.988 278.36 606.988 278.264 606.924 278.2C605.628 277.064 604.268 276.496 602.844 276.496C601.724 276.496 600.684 276.752 599.724 277.264C598.764 277.776 597.996 278.512 597.42 279.472C596.86 280.416 596.58 281.528 596.58 282.808C596.58 283.976 596.82 285.04 597.3 286C597.78 286.944 598.452 287.696 599.316 288.256C600.18 288.816 601.164 289.096 602.268 289.096C604.14 289.096 605.772 288.656 607.164 287.776V284.272H602.82C602.74 284.272 602.676 284.328 602.628 284.44C602.58 284.552 602.556 284.664 602.556 284.776H602.1V280.936H602.556C602.556 281.048 602.58 281.16 602.628 281.272C602.676 281.384 602.74 281.44 602.82 281.44H610.788V281.896C610.676 281.896 610.556 281.92 610.428 281.968C610.316 282.016 610.26 282.08 610.26 282.16V288.832C610.26 288.912 610.324 288.952 610.452 288.952C610.644 288.952 610.86 288.88 611.1 288.736L611.34 289.12Z" fill="white"/>
</svg>
